# Blender 4.3.2
# www.blender.org
mtllib shoe.mtl
o Circle
v 0.000000 0.009497 -1.486296
v -0.166300 0.009497 -1.469917
v -0.326210 0.009497 -1.421409
v -0.473584 0.009497 -1.342636
v -0.602758 0.009497 -1.236625
v -0.708768 0.009497 -1.107452
v -0.786899 0.009164 -0.961084
v -0.835969 0.009905 -0.233216
v -0.852566 0.009945 -0.064707
v -0.827986 0.051576 0.129541
v -0.821596 0.016614 0.293707
v -0.831470 0.000000 0.555570
v -0.730927 -0.009812 0.693623
v -0.550171 -0.010376 0.823389
v -0.378964 -0.010376 0.914901
v -0.193194 -0.010376 0.971254
v 0.000000 -0.010376 0.990281
v 0.193194 -0.010376 0.971254
v 0.378964 -0.010376 0.914901
v 0.550171 -0.010376 0.823389
v 0.697517 -0.008504 0.695421
v 0.831470 0.000000 0.555570
v 0.839696 0.120710 0.244028
v 0.875108 0.009564 0.133763
v 0.852566 0.009945 -0.064707
v 0.835969 0.009905 -0.233216
v 0.786899 0.009164 -0.961084
v 0.708768 0.009497 -1.107452
v 0.602758 0.009497 -1.236625
v 0.473584 0.009497 -1.342636
v 0.326210 0.009497 -1.421409
v 0.166300 0.009497 -1.469917
v -0.717407 -0.009060 1.544603
v -0.561315 -0.009741 1.672692
v -0.386641 -0.009741 1.766057
v -0.197108 -0.009741 1.823552
v 0.000000 -0.009741 1.842965
v 0.197108 -0.009741 1.823552
v 0.386641 -0.009741 1.766057
v 0.561315 -0.009741 1.672692
v 0.717407 -0.009060 1.544603
v -0.760286 0.116846 0.557866
v 0.836943 0.183111 0.560420
v -0.717107 0.000000 1.387951
v 0.697107 0.000000 1.387951
v -0.821469 0.010000 1.226414
v 0.821469 0.010000 1.226414
v 0.000000 0.608424 -1.506426
v -0.170228 0.608424 -1.489660
v -0.333914 0.608424 -1.440006
v -0.484767 0.608424 -1.359373
v -0.616992 0.608424 -1.250859
v -0.725505 0.608424 -1.118635
v -0.806688 0.608424 -0.966753
v -0.855904 0.608424 -0.234868
v -0.872453 0.608424 -0.066843
v -0.877055 0.608424 0.109012
v -0.823127 0.607359 0.298239
v -0.730927 0.618236 0.693623
v -0.550171 0.618800 0.823389
v -0.378964 0.618800 0.914901
v -0.193194 0.618800 0.971254
v -0.000000 0.618800 0.990281
v 0.193194 0.618800 0.971254
v 0.378964 0.618800 0.914901
v 0.549994 0.618623 0.820158
v 0.658824 0.611935 0.476482
v 0.837700 0.601790 0.268133
v 0.876488 0.628729 0.127656
v 0.872453 0.608424 -0.066843
v 0.855904 0.608424 -0.234868
v 0.806688 0.608424 -0.966753
v 0.725505 0.608424 -1.118635
v 0.616992 0.608424 -1.250859
v 0.484767 0.608424 -1.359373
v 0.333914 0.608424 -1.440006
v 0.170228 0.608424 -1.489660
v -0.717407 0.617484 1.544603
v -0.561315 0.618165 1.672692
v -0.386641 0.618165 1.766057
v -0.197108 0.618165 1.823552
v -0.000000 0.618165 1.842965
v 0.197108 0.618165 1.823552
v 0.386641 0.618165 1.766057
v 0.561315 0.618165 1.672692
v 0.717407 0.617484 1.544603
v -0.788652 0.579475 0.562069
v 0.841120 0.588897 0.548969
v -0.717107 0.608424 1.387951
v 0.697107 0.608424 1.387951
v -0.821469 0.598424 1.226414
v 0.821469 0.598424 1.226414
v 0.000000 0.383336 -1.486329
v -0.166307 0.383336 -1.469949
v -0.326223 0.383336 -1.421439
v -0.473602 0.383336 -1.342664
v -0.602781 0.383336 -1.236649
v -0.708796 0.383336 -1.107470
v -0.787022 0.383336 -0.961119
v -0.835970 0.383336 -0.233217
v -0.852566 0.383336 -0.064707
v -0.874604 0.383336 0.124724
v 0.875901 0.393336 0.135879
v 0.852566 0.383336 -0.064707
v 0.835970 0.383336 -0.233217
v 0.787022 0.383336 -0.961119
v 0.708796 0.383336 -1.107470
v 0.602781 0.383336 -1.236649
v 0.473602 0.383336 -1.342664
v 0.326223 0.383336 -1.421439
v 0.166307 0.383336 -1.469949
v 0.000000 0.991760 -1.486329
v -0.173989 0.991760 -1.468361
v -0.332023 0.991760 -1.418996
v -0.468807 0.991760 -1.345829
v -0.597645 0.991760 -1.241714
v -0.705013 0.991760 -1.113053
v -0.782638 0.991760 -0.973711
v -0.838608 0.991760 -0.201065
v -0.853846 0.991760 -0.052780
v -0.866560 0.991760 0.128877
v -0.826842 0.989658 0.294745
v 0.827190 0.987987 0.287328
v 0.875918 0.991760 0.131716
v 0.853846 0.991760 -0.052780
v 0.838636 0.991760 -0.200730
v 0.783932 0.991760 -0.970398
v 0.705013 0.991760 -1.113053
v 0.597645 0.991760 -1.241714
v 0.468807 0.991760 -1.345829
v 0.332023 0.991760 -1.418996
v 0.173989 0.991760 -1.468361
v 0.000000 0.000000 -1.496377
v -0.168267 0.000000 -1.479805
v -0.330068 0.000000 -1.430723
v -0.479185 0.000000 -1.351018
v -0.609886 0.000000 -1.243754
v -0.717151 0.000000 -1.113053
v -0.796855 0.000000 -0.963936
v -0.845937 0.000000 -0.234042
v -0.862510 0.000000 -0.065775
v -0.885834 0.000000 0.134724
v -0.834438 0.000000 0.304156
v -0.831470 0.000000 0.555570
v -0.707107 0.000000 0.707107
v -0.555570 0.000000 0.831470
v -0.382683 0.000000 0.923880
v -0.195090 0.000000 0.980785
v 0.000000 0.000000 1.000000
v 0.195090 0.000000 0.980785
v 0.382683 0.000000 0.923880
v 0.555570 0.000000 0.831470
v 0.707107 0.000000 0.707107
v 0.831470 0.000000 0.555570
v 0.834438 0.000000 0.304156
v 0.885834 0.000000 0.134724
v 0.862510 0.000000 -0.065775
v 0.845937 0.000000 -0.234042
v 0.796855 0.000000 -0.963936
v 0.717151 0.000000 -1.113053
v 0.609886 0.000000 -1.243754
v 0.479185 0.000000 -1.351018
v 0.330068 0.000000 -1.430723
v 0.168267 0.000000 -1.479805
v -0.707107 0.000000 1.539731
v -0.555570 0.000000 1.664094
v -0.382683 0.000000 1.756504
v -0.195090 0.000000 1.813410
v 0.000000 0.000000 1.832625
v 0.195090 0.000000 1.813410
v 0.382683 0.000000 1.756504
v 0.555570 0.000000 1.664094
v 0.707107 0.000000 1.539731
v -0.831470 0.000000 0.555570
v 0.831470 0.000000 0.555570
v -0.707107 0.000000 1.387951
v 0.707107 0.000000 1.387951
v -0.831470 0.000000 1.236414
v 0.831470 0.000000 1.236414
v 0.000000 0.608424 -1.496377
v -0.168267 0.608424 -1.479805
v -0.330068 0.608424 -1.430723
v -0.479185 0.608424 -1.351018
v -0.609886 0.608424 -1.243754
v -0.717151 0.608424 -1.113053
v -0.796855 0.608424 -0.963936
v -0.845937 0.608424 -0.234042
v -0.862510 0.608424 -0.065775
v -0.885834 0.608424 0.134724
v -0.834438 0.608424 0.304156
v -0.707107 0.608424 0.707107
v -0.555570 0.608424 0.831470
v -0.382683 0.608424 0.923880
v -0.195090 0.608424 0.980785
v 0.000000 0.608424 1.000000
v 0.195090 0.608424 0.980785
v 0.382683 0.608424 0.923880
v 0.555570 0.608424 0.831470
v 0.707107 0.608424 0.707107
v 0.834438 0.608424 0.304156
v 0.885834 0.608424 0.134724
v 0.862510 0.608424 -0.065775
v 0.845937 0.608424 -0.234042
v 0.796855 0.608424 -0.963936
v 0.717151 0.608424 -1.113053
v 0.609886 0.608424 -1.243754
v 0.479185 0.608424 -1.351018
v 0.330068 0.608424 -1.430723
v 0.168267 0.608424 -1.479805
v -0.707107 0.608424 1.539731
v -0.555570 0.608424 1.664094
v -0.382683 0.608424 1.756504
v -0.195090 0.608424 1.813410
v 0.000000 0.608424 1.832625
v 0.195090 0.608424 1.813410
v 0.382683 0.608424 1.756504
v 0.555570 0.608424 1.664094
v 0.707107 0.608424 1.539731
v -0.831470 0.608424 0.555570
v 0.831470 0.608424 0.555570
v -0.707107 0.608424 1.387951
v 0.707107 0.608424 1.387951
v -0.831470 0.608424 1.236414
v 0.831470 0.608424 1.236414
v 0.000000 0.383336 -1.496377
v -0.168267 0.383336 -1.479805
v -0.330068 0.383336 -1.430723
v -0.479185 0.383336 -1.351018
v -0.609886 0.383336 -1.243754
v -0.717151 0.383336 -1.113053
v -0.796855 0.383336 -0.963936
v -0.845937 0.383336 -0.234042
v -0.862510 0.383336 -0.065775
v -0.885834 0.383336 0.134724
v 0.885834 0.383336 0.134724
v 0.862510 0.383336 -0.065775
v 0.845937 0.383336 -0.234042
v 0.796855 0.383336 -0.963936
v 0.717151 0.383336 -1.113053
v 0.609886 0.383336 -1.243754
v 0.479185 0.383336 -1.351018
v 0.330068 0.383336 -1.430723
v 0.168267 0.383336 -1.479805
v 0.000000 0.991760 -1.496377
v -0.168267 0.991760 -1.479805
v -0.330068 0.991760 -1.430723
v -0.479185 0.991760 -1.351018
v -0.609886 0.991760 -1.243754
v -0.717151 0.991760 -1.113053
v -0.796855 0.991760 -0.963936
v -0.845937 0.991760 -0.234042
v -0.862510 0.991760 -0.065775
v -0.885834 0.991760 0.134724
v -0.834438 0.991760 0.304156
v 0.834438 0.991760 0.304156
v 0.885834 0.991760 0.134724
v 0.862510 0.991760 -0.065775
v 0.845937 0.991760 -0.234042
v 0.796855 0.991760 -0.963936
v 0.717151 0.991760 -1.113053
v 0.609886 0.991760 -1.243754
v 0.479185 0.991760 -1.351018
v 0.330068 0.991760 -1.430723
v 0.168267 0.991760 -1.479805
vn 0.0002 -1.0000 0.0007
vn -0.0001 -1.0000 0.0007
vn -0.0004 -1.0000 0.0007
vn 0.0004 -1.0000 0.0007
vn 0.0001 -1.0000 0.0007
vn -0.0002 -1.0000 0.0007
vn -0.0043 -1.0000 0.0008
vn 0.0083 -1.0000 -0.0001
vn -0.0000 -0.9981 -0.0618
vn -0.0165 0.9838 0.1784
vn 0.0002 1.0000 0.0007
vn -0.0001 1.0000 0.0007
vn -0.0004 1.0000 0.0007
vn 0.0009 1.0000 0.0006
vn 0.0001 1.0000 0.0007
vn -0.0002 1.0000 0.0007
vn -0.0043 1.0000 0.0008
vn 0.0217 0.9998 -0.0034
vn -0.0000 0.9981 -0.0618
vn 0.0024 -0.9996 0.0288
vn -0.9935 0.0007 0.1142
vn -0.6307 0.0520 -0.7743
vn -0.2903 -0.0000 -0.9569
vn -0.4709 0.0507 -0.8807
vn 0.9977 0.0659 -0.0138
vn -0.4780 -0.0023 -0.8783
vn -0.2938 0.0520 -0.9545
vn -0.6344 -0.0000 0.7730
vn 0.0031 0.0084 1.0000
vn -0.8738 -0.1114 -0.4734
vn 0.9952 -0.0000 0.0980
vn -0.4714 -0.0000 0.8819
vn -0.9999 -0.0000 0.0159
vn 0.1003 0.0532 -0.9935
vn -0.2903 -0.0000 0.9569
vn 0.9989 0.0238 -0.0409
vn -0.1003 0.0532 -0.9935
vn -0.0980 -0.0000 0.9952
vn -0.9585 0.0041 -0.2850
vn 0.9856 0.0412 -0.1640
vn 0.0980 -0.0000 0.9952
vn 0.9977 0.0002 0.0672
vn 0.2903 -0.0000 0.9569
vn 0.2938 0.0520 -0.9545
vn -0.9998 -0.0000 0.0199
vn 0.4714 -0.0000 0.8819
vn 0.8821 0.0002 0.4712
vn -0.9993 -0.0272 0.0237
vn 0.5832 -0.0000 -0.8123
vn 0.6344 -0.0000 0.7730
vn 0.4709 0.0507 -0.8807
vn 0.9970 0.0266 0.0721
vn 0.4714 -0.0000 -0.8819
vn -0.0980 0.0001 0.9952
vn 0.7730 0.0001 0.6344
vn -0.9997 0.0039 -0.0257
vn 0.2903 -0.0000 -0.9569
vn 0.9987 -0.0007 0.0507
vn 0.6307 0.0520 -0.7743
vn -0.0000 -0.0000 -1.0000
vn 0.0980 -0.0000 -0.9952
vn -0.2903 0.0001 0.9569
vn 0.6344 0.0001 0.7730
vn -0.0980 -0.0000 -0.9952
vn 0.6315 0.0001 0.7754
vn -0.2942 0.0001 0.9557
vn 0.7704 -0.0001 0.6376
vn -0.1004 -0.0007 0.9949
vn 0.8779 0.0013 0.4789
vn 0.9976 -0.0026 0.0697
vn 0.9950 -0.0004 0.1000
vn 0.9956 -0.0068 0.0932
vn -0.9931 0.0003 0.1171
vn -0.9950 -0.0004 0.1000
vn -0.9976 -0.0017 0.0690
vn -0.8785 0.0009 0.4777
vn 0.1004 -0.0007 0.9949
vn -0.7704 -0.0001 0.6376
vn 0.2942 0.0001 0.9557
vn -0.6315 0.0001 0.7754
vn 0.4715 0.0009 0.8819
vn -0.4715 0.0009 0.8819
vn -0.7694 0.0522 -0.6367
vn -0.9952 -0.0000 0.0980
vn -0.9588 -0.0054 -0.2840
vn -0.8768 0.0501 -0.4782
vn -0.9977 0.0002 0.0672
vn 0.9972 0.0273 -0.0702
vn -0.9960 0.0562 -0.0696
vn -0.8821 0.0002 0.4712
vn 0.9936 0.0528 -0.0999
vn 0.0980 0.0001 0.9952
vn -0.9936 0.0528 -0.0999
vn -0.7730 0.0001 0.6344
vn 0.9961 0.0547 -0.0689
vn -0.9160 -0.0379 -0.3995
vn -0.9980 0.0400 -0.0483
vn 0.2903 0.0001 0.9569
vn -0.6344 0.0001 0.7730
vn 0.8775 0.0507 -0.4770
vn 0.9669 -0.0031 -0.2550
vn 0.4714 0.0001 0.8819
vn -0.4714 0.0001 0.8819
vn 0.7694 0.0522 -0.6367
vn 0.0361 -0.3203 -0.9466
vn 1.0000 0.0063 -0.0038
vn 0.9916 0.0036 -0.1292
vn -0.0089 0.9972 -0.0744
vn -0.0000 1.0000 -0.0000
vn -0.0000 -1.0000 -0.0000
vn 0.9933 -0.0000 -0.1156
vn -0.9933 -0.0000 -0.1156
vn 0.6344 -0.0000 -0.7730
vn -0.9952 -0.0000 -0.0980
vn 1.0000 -0.0000 -0.0000
vn -1.0000 -0.0000 -0.0000
vn 0.9569 -0.0000 0.2903
vn -0.9569 -0.0000 0.2903
vn -0.9977 -0.0000 -0.0671
vn -0.4714 -0.0000 -0.8819
vn -0.8819 -0.0000 -0.4714
vn -0.6344 -0.0000 -0.7730
vn -0.7730 -0.0000 -0.6344
vn -0.0000 -0.0000 1.0000
vn 0.9952 -0.0000 -0.0980
vn 0.9977 -0.0000 -0.0671
vn 0.8819 -0.0000 -0.4714
vn 0.7730 -0.0000 -0.6344
vn 0.7730 -0.0000 0.6344
vn 0.8819 -0.0000 0.4714
vn -0.9933 -0.0000 0.1156
vn 0.9977 -0.0000 0.0671
vn -0.9977 -0.0000 0.0671
vn 0.9933 -0.0000 0.1156
vn -0.8819 -0.0000 0.4714
vn -0.7730 -0.0000 0.6344
vn -0.0513 0.2791 0.9589
vn -0.9999 -0.0000 -0.0118
vn -0.9999 -0.0000 0.0118
vn 0.2771 -0.9608 0.0041
vn 0.3953 -0.9186 0.0058
vn 0.9962 -0.0558 -0.0661
vn 0.2771 0.9608 0.0041
vn 0.0568 0.9984 0.0008
vn 0.0707 0.9974 -0.0130
vn -0.1694 0.9847 -0.0407
vn -0.0000 0.9758 -0.2185
vn 0.9028 0.4299 0.0096
vn -0.0552 -0.9956 0.0762
vn 0.9352 0.1714 0.3100
vn 0.9974 0.0491 0.0535
vt 0.000000 0.000000
s 0
f 19/1/1 39/1/1 38/1/1 18/1/1
f 17/1/2 37/1/2 36/1/2 16/1/2
f 15/1/3 35/1/3 34/1/3 14/1/3
f 20/1/4 40/1/4 39/1/4 19/1/4
f 18/1/5 38/1/5 37/1/5 17/1/5
f 16/1/6 36/1/6 35/1/6 15/1/6
f 14/1/7 34/1/7 33/1/7 13/1/7
f 21/1/8 41/1/8 40/1/8 20/1/8
f 47/1/9 45/1/9 44/1/9 46/1/9
f 42/1/10 46/1/10 44/1/10 45/1/10 47/1/10 43/1/10
f 65/1/11 64/1/11 83/1/11 84/1/11
f 63/1/12 62/1/12 81/1/12 82/1/12
f 61/1/13 60/1/13 79/1/13 80/1/13
f 66/1/14 65/1/14 84/1/14 85/1/14
f 64/1/15 63/1/15 82/1/15 83/1/15
f 62/1/16 61/1/16 80/1/16 81/1/16
f 60/1/17 59/1/17 78/1/17 79/1/17
f 67/1/18 66/1/18 85/1/18 86/1/18
f 92/1/19 91/1/19 89/1/19 90/1/19
f 87/1/20 88/1/20 92/1/20 90/1/20 89/1/20 91/1/20
f 25/1/21 24/1/21 103/1/21 104/1/21
f 51/1/22 52/1/22 116/1/22 115/1/22
f 19/1/23 18/1/23 64/1/23 65/1/23
f 50/1/24 51/1/24 115/1/24 114/1/24
f 10/1/25 9/1/25 101/1/25 102/1/25
f 20/1/26 19/1/26 65/1/26 66/1/26
f 49/1/27 50/1/27 114/1/27 113/1/27
f 33/1/28 34/1/28 79/1/28 78/1/28
f 42/1/29 43/1/29 88/1/29 87/1/29
f 21/1/30 20/1/30 66/1/30 67/1/30
f 9/1/31 8/1/31 100/1/31 101/1/31
f 34/1/32 35/1/32 80/1/32 79/1/32
f 13/1/33 33/1/33 78/1/33 59/1/33
f 77/1/34 48/1/34 112/1/34 132/1/34
f 35/1/35 36/1/35 81/1/35 80/1/35
f 41/1/36 21/1/36 67/1/36 86/1/36
f 48/1/37 49/1/37 113/1/37 112/1/37
f 36/1/38 37/1/38 82/1/38 81/1/38
f 24/1/39 23/1/39 68/1/39 69/1/39
f 11/1/40 10/1/40 57/1/40 58/1/40
f 37/1/41 38/1/41 83/1/41 82/1/41
f 8/1/42 7/1/42 99/1/42 100/1/42
f 38/1/43 39/1/43 84/1/43 83/1/43
f 76/1/44 77/1/44 132/1/44 131/1/44
f 13/1/45 44/1/45 89/1/45 59/1/45
f 39/1/46 40/1/46 85/1/46 84/1/46
f 7/1/47 6/1/47 98/1/47 99/1/47
f 21/1/48 45/1/48 90/1/48 67/1/48
f 14/1/49 13/1/49 59/1/49 60/1/49
f 40/1/50 41/1/50 86/1/50 85/1/50
f 75/1/51 76/1/51 131/1/51 130/1/51
f 46/1/52 42/1/52 87/1/52 91/1/52
f 15/1/53 14/1/53 60/1/53 61/1/53
f 1/1/54 32/1/54 111/1/54 93/1/54
f 6/1/55 5/1/55 97/1/55 98/1/55
f 43/1/56 47/1/56 92/1/56 88/1/56
f 16/1/57 15/1/57 61/1/57 62/1/57
f 24/1/58 69/1/58 124/1/58 103/1/58
f 74/1/59 75/1/59 130/1/59 129/1/59
f 47/1/60 46/1/60 91/1/60 92/1/60
f 17/1/61 16/1/61 62/1/61 63/1/61
f 32/1/62 31/1/62 110/1/62 111/1/62
f 5/1/63 4/1/63 96/1/63 97/1/63
f 18/1/64 17/1/64 63/1/64 64/1/64
f 97/1/65 96/1/65 115/1/65 116/1/65
f 111/1/66 110/1/66 131/1/66 132/1/66
f 98/1/67 97/1/67 116/1/67 117/1/67
f 93/1/68 111/1/68 132/1/68 112/1/68
f 99/1/69 98/1/69 117/1/69 118/1/69
f 100/1/70 99/1/70 118/1/70 119/1/70
f 101/1/71 100/1/71 119/1/71 120/1/71
f 102/1/72 101/1/72 120/1/72 121/1/72
f 104/1/73 103/1/73 124/1/73 125/1/73
f 105/1/74 104/1/74 125/1/74 126/1/74
f 106/1/75 105/1/75 126/1/75 127/1/75
f 107/1/76 106/1/76 127/1/76 128/1/76
f 94/1/77 93/1/77 112/1/77 113/1/77
f 108/1/78 107/1/78 128/1/78 129/1/78
f 95/1/79 94/1/79 113/1/79 114/1/79
f 109/1/80 108/1/80 129/1/80 130/1/80
f 96/1/81 95/1/81 114/1/81 115/1/81
f 110/1/82 109/1/82 130/1/82 131/1/82
f 52/1/83 53/1/83 117/1/83 116/1/83
f 26/1/84 25/1/84 104/1/84 105/1/84
f 69/1/85 68/1/85 123/1/85 124/1/85
f 53/1/86 54/1/86 118/1/86 117/1/86
f 27/1/87 26/1/87 105/1/87 106/1/87
f 69/1/88 70/1/88 125/1/88 124/1/88
f 54/1/89 55/1/89 119/1/89 118/1/89
f 28/1/90 27/1/90 106/1/90 107/1/90
f 70/1/91 71/1/91 126/1/91 125/1/91
f 2/1/92 1/1/92 93/1/92 94/1/92
f 55/1/93 56/1/93 120/1/93 119/1/93
f 29/1/94 28/1/94 107/1/94 108/1/94
f 71/1/95 72/1/95 127/1/95 126/1/95
f 57/1/96 10/1/96 102/1/96 121/1/96
f 56/1/97 57/1/97 121/1/97 120/1/97
f 3/1/98 2/1/98 94/1/98 95/1/98
f 30/1/99 29/1/99 108/1/99 109/1/99
f 72/1/100 73/1/100 128/1/100 127/1/100
f 58/1/101 57/1/101 121/1/101 122/1/101
f 4/1/102 3/1/102 95/1/102 96/1/102
f 31/1/103 30/1/103 109/1/103 110/1/103
f 73/1/104 74/1/104 129/1/104 128/1/104
f 58/1/105 122/1/105 123/1/105 68/1/105 88/1/105 67/1/105 66/1/105 23/1/105 43/1/105 42/1/105 11/1/105 87/1/105
f 68/1/106 123/1/106 88/1/106 43/1/106 23/1/106
f 58/1/107 87/1/107 11/1/107
f 2/1/108 3/1/108 4/1/108 5/1/108 6/1/108 7/1/108 8/1/108 9/1/108 10/1/108 11/1/108 42/1/108 43/1/108 23/1/108 24/1/108 25/1/108 26/1/108 27/1/108 28/1/108 29/1/108 30/1/108 31/1/108 32/1/108 1/1/108
f 151/1/109 150/1/109 170/1/109 171/1/109
f 149/1/109 148/1/109 168/1/109 169/1/109
f 147/1/109 146/1/109 166/1/109 167/1/109
f 152/1/109 151/1/109 171/1/109 172/1/109
f 150/1/109 149/1/109 169/1/109 170/1/109
f 148/1/109 147/1/109 167/1/109 168/1/109
f 146/1/109 145/1/109 165/1/109 166/1/109
f 153/1/109 152/1/109 172/1/109 173/1/109
f 179/1/109 178/1/109 176/1/109 177/1/109
f 174/1/110 175/1/110 179/1/110 177/1/110 176/1/110 178/1/110
f 197/1/110 216/1/110 215/1/110 196/1/110
f 195/1/110 214/1/110 213/1/110 194/1/110
f 193/1/110 212/1/110 211/1/110 192/1/110
f 198/1/110 217/1/110 216/1/110 197/1/110
f 196/1/110 215/1/110 214/1/110 195/1/110
f 194/1/110 213/1/110 212/1/110 193/1/110
f 192/1/110 211/1/110 210/1/110 191/1/110
f 199/1/110 218/1/110 217/1/110 198/1/110
f 224/1/110 222/1/110 221/1/110 223/1/110
f 219/1/109 223/1/109 221/1/109 222/1/109 224/1/109 220/1/109
f 157/1/111 236/1/111 235/1/111 156/1/111
f 183/1/50 247/1/50 248/1/50 184/1/50
f 151/1/43 197/1/43 196/1/43 150/1/43
f 182/1/46 246/1/46 247/1/46 183/1/46
f 142/1/112 234/1/112 233/1/112 141/1/112
f 152/1/46 198/1/46 197/1/46 151/1/46
f 181/1/43 245/1/43 246/1/43 182/1/43
f 165/1/113 210/1/113 211/1/113 166/1/113
f 174/1/60 219/1/60 220/1/60 175/1/60
f 153/1/50 199/1/50 198/1/50 152/1/50
f 141/1/114 233/1/114 232/1/114 140/1/114
f 166/1/53 211/1/53 212/1/53 167/1/53
f 145/1/115 191/1/115 210/1/115 165/1/115
f 209/1/38 264/1/38 244/1/38 180/1/38
f 167/1/57 212/1/57 213/1/57 168/1/57
f 173/1/116 218/1/116 199/1/116 153/1/116
f 180/1/41 244/1/41 245/1/41 181/1/41
f 168/1/61 213/1/61 214/1/61 169/1/61
f 156/1/117 201/1/117 200/1/117 155/1/117
f 143/1/118 190/1/118 189/1/118 142/1/118
f 169/1/64 214/1/64 215/1/64 170/1/64
f 140/1/119 232/1/119 231/1/119 139/1/119
f 170/1/23 215/1/23 216/1/23 171/1/23
f 208/1/35 263/1/35 264/1/35 209/1/35
f 145/1/115 191/1/115 221/1/115 176/1/115
f 171/1/120 216/1/120 217/1/120 172/1/120
f 139/1/121 231/1/121 230/1/121 138/1/121
f 153/1/115 199/1/115 222/1/115 177/1/115
f 146/1/28 192/1/28 191/1/28 145/1/28
f 172/1/122 217/1/122 218/1/122 173/1/122
f 207/1/32 262/1/32 263/1/32 208/1/32
f 178/1/116 223/1/116 219/1/116 174/1/116
f 147/1/32 193/1/32 192/1/32 146/1/32
f 133/1/61 225/1/61 243/1/61 164/1/61
f 138/1/123 230/1/123 229/1/123 137/1/123
f 175/1/115 220/1/115 224/1/115 179/1/115
f 148/1/35 194/1/35 193/1/35 147/1/35
f 156/1/124 235/1/124 256/1/124 201/1/124
f 206/1/28 261/1/28 262/1/28 207/1/28
f 179/1/124 224/1/124 223/1/124 178/1/124
f 149/1/38 195/1/38 194/1/38 148/1/38
f 164/1/57 243/1/57 242/1/57 163/1/57
f 137/1/122 229/1/122 228/1/122 136/1/122
f 150/1/41 196/1/41 195/1/41 149/1/41
f 229/1/122 248/1/122 247/1/122 228/1/122
f 243/1/57 264/1/57 263/1/57 242/1/57
f 230/1/123 249/1/123 248/1/123 229/1/123
f 225/1/61 244/1/61 264/1/61 243/1/61
f 231/1/121 250/1/121 249/1/121 230/1/121
f 232/1/119 251/1/119 250/1/119 231/1/119
f 233/1/114 252/1/114 251/1/114 232/1/114
f 234/1/112 253/1/112 252/1/112 233/1/112
f 236/1/111 257/1/111 256/1/111 235/1/111
f 237/1/125 258/1/125 257/1/125 236/1/125
f 238/1/126 259/1/126 258/1/126 237/1/126
f 239/1/127 260/1/127 259/1/127 238/1/127
f 226/1/64 245/1/64 244/1/64 225/1/64
f 240/1/128 261/1/128 260/1/128 239/1/128
f 227/1/23 246/1/23 245/1/23 226/1/23
f 241/1/113 262/1/113 261/1/113 240/1/113
f 228/1/120 247/1/120 246/1/120 227/1/120
f 242/1/53 263/1/53 262/1/53 241/1/53
f 184/1/129 248/1/129 249/1/129 185/1/129
f 158/1/125 237/1/125 236/1/125 157/1/125
f 201/1/117 256/1/117 255/1/117 200/1/117
f 185/1/130 249/1/130 250/1/130 186/1/130
f 159/1/126 238/1/126 237/1/126 158/1/126
f 201/1/131 256/1/131 257/1/131 202/1/131
f 186/1/132 250/1/132 251/1/132 187/1/132
f 160/1/127 239/1/127 238/1/127 159/1/127
f 202/1/84 257/1/84 258/1/84 203/1/84
f 134/1/64 226/1/64 225/1/64 133/1/64
f 187/1/31 251/1/31 252/1/31 188/1/31
f 161/1/128 240/1/128 239/1/128 160/1/128
f 203/1/133 258/1/133 259/1/133 204/1/133
f 189/1/124 253/1/124 234/1/124 142/1/124
f 188/1/134 252/1/134 253/1/134 189/1/134
f 135/1/23 227/1/23 226/1/23 134/1/23
f 162/1/113 241/1/113 240/1/113 161/1/113
f 204/1/135 259/1/135 260/1/135 205/1/135
f 190/1/118 254/1/118 253/1/118 189/1/118
f 136/1/120 228/1/120 227/1/120 135/1/120
f 163/1/53 242/1/53 241/1/53 162/1/53
f 205/1/136 260/1/136 261/1/136 206/1/136
f 190/1/137 219/1/137 143/1/137 174/1/137 175/1/137 155/1/137 198/1/137 199/1/137 220/1/137 200/1/137 255/1/137 254/1/137
f 200/1/138 155/1/138 175/1/138 220/1/138 255/1/138
f 190/1/139 143/1/139 219/1/139
f 134/1/110 133/1/110 164/1/110 163/1/110 162/1/110 161/1/110 160/1/110 159/1/110 158/1/110 157/1/110 156/1/110 155/1/110 175/1/110 174/1/110 143/1/110 142/1/110 141/1/110 140/1/110 139/1/110 138/1/110 137/1/110 136/1/110 135/1/110
f 44/1/140 13/1/140 145/1/140 176/1/140
f 45/1/141 21/1/141 153/1/141 177/1/141
f 49/1/110 48/1/110 180/1/110 181/1/110
f 50/1/110 49/1/110 181/1/110 182/1/110
f 51/1/110 50/1/110 182/1/110 183/1/110
f 52/1/110 51/1/110 183/1/110 184/1/110
f 53/1/110 52/1/110 184/1/110 185/1/110
f 54/1/110 53/1/110 185/1/110 186/1/110
f 55/1/110 54/1/110 186/1/110 187/1/110
f 56/1/110 55/1/110 187/1/110 188/1/110
f 57/1/110 56/1/110 188/1/110 189/1/110
f 70/1/142 69/1/142 201/1/142 202/1/142
f 71/1/110 70/1/110 202/1/110 203/1/110
f 72/1/110 71/1/110 203/1/110 204/1/110
f 73/1/110 72/1/110 204/1/110 205/1/110
f 74/1/110 73/1/110 205/1/110 206/1/110
f 75/1/110 74/1/110 206/1/110 207/1/110
f 76/1/110 75/1/110 207/1/110 208/1/110
f 77/1/110 76/1/110 208/1/110 209/1/110
f 48/1/110 77/1/110 209/1/110 180/1/110
f 59/1/143 89/1/143 221/1/143 191/1/143
f 67/1/144 90/1/144 222/1/144 199/1/144
f 89/1/124 44/1/124 176/1/124 221/1/124
f 90/1/124 45/1/124 177/1/124 222/1/124
f 122/1/145 121/1/145 253/1/145 254/1/145
f 124/1/146 123/1/146 255/1/146 256/1/146
f 123/1/147 122/1/147 254/1/147 255/1/147
f 88/1/148 68/1/148 200/1/148 220/1/148
f 67/1/149 88/1/149 220/1/149 199/1/149
f 23/1/150 66/1/150 198/1/150 155/1/150
f 88/1/151 123/1/151 255/1/151 220/1/151
l 12 11
l 13 12
l 22 21
l 23 22
l 12 42
l 22 43
l 67 23
l 144 143
l 145 144
l 154 153
l 155 154
l 144 174
l 154 175
l 199 155
